<mxfile host="app.diagrams.net" modified="2024-03-13T21:04:30.385Z" agent="Mozilla/5.0 (Windows NT 10.0; Win64; x64) AppleWebKit/537.36 (KHTML, like Gecko) Chrome/121.0.0.0 Safari/537.36" etag="G8sFhbK3nkehmRGF2lOE" version="24.0.6" type="github">
  <diagram name="第 1 页" id="Zz-yE3sN_qA-QzTztnrS">
    <mxGraphModel dx="1245" dy="694" grid="0" gridSize="10" guides="1" tooltips="1" connect="1" arrows="1" fold="1" page="1" pageScale="1" pageWidth="827" pageHeight="1169" background="#ffffff" math="1" shadow="0">
      <root>
        <mxCell id="0" />
        <mxCell id="1" parent="0" />
        <mxCell id="qYHbjZ-DGWUZZU7vlHsY-44" style="edgeStyle=orthogonalEdgeStyle;rounded=0;orthogonalLoop=1;jettySize=auto;html=1;entryX=0.5;entryY=1;entryDx=0;entryDy=0;" parent="1" source="qYHbjZ-DGWUZZU7vlHsY-41" target="qYHbjZ-DGWUZZU7vlHsY-24" edge="1">
          <mxGeometry relative="1" as="geometry" />
        </mxCell>
        <mxCell id="qYHbjZ-DGWUZZU7vlHsY-41" value="" style="rounded=1;whiteSpace=wrap;html=1;dashed=1;strokeWidth=2;" parent="1" vertex="1">
          <mxGeometry x="260" y="410.5" width="195" height="67" as="geometry" />
        </mxCell>
        <mxCell id="qYHbjZ-DGWUZZU7vlHsY-43" style="edgeStyle=orthogonalEdgeStyle;rounded=0;orthogonalLoop=1;jettySize=auto;html=1;entryX=0.5;entryY=0;entryDx=0;entryDy=0;" parent="1" source="qYHbjZ-DGWUZZU7vlHsY-37" target="qYHbjZ-DGWUZZU7vlHsY-24" edge="1">
          <mxGeometry relative="1" as="geometry" />
        </mxCell>
        <mxCell id="qYHbjZ-DGWUZZU7vlHsY-37" value="" style="rounded=1;whiteSpace=wrap;html=1;dashed=1;strokeWidth=2;" parent="1" vertex="1">
          <mxGeometry x="260" y="312" width="195" height="67" as="geometry" />
        </mxCell>
        <mxCell id="qYHbjZ-DGWUZZU7vlHsY-13" style="edgeStyle=orthogonalEdgeStyle;rounded=0;orthogonalLoop=1;jettySize=auto;html=1;entryX=0;entryY=0.5;entryDx=0;entryDy=0;" parent="1" source="qYHbjZ-DGWUZZU7vlHsY-15" target="qYHbjZ-DGWUZZU7vlHsY-17" edge="1">
          <mxGeometry relative="1" as="geometry" />
        </mxCell>
        <mxCell id="qYHbjZ-DGWUZZU7vlHsY-14" style="edgeStyle=orthogonalEdgeStyle;rounded=0;orthogonalLoop=1;jettySize=auto;html=1;entryX=0;entryY=0.5;entryDx=0;entryDy=0;" parent="1" source="qYHbjZ-DGWUZZU7vlHsY-15" target="qYHbjZ-DGWUZZU7vlHsY-19" edge="1">
          <mxGeometry relative="1" as="geometry" />
        </mxCell>
        <mxCell id="qYHbjZ-DGWUZZU7vlHsY-15" value="&lt;font style=&quot;font-size: 14px;&quot; face=&quot;宋体&quot;&gt;数据&lt;/font&gt;" style="rounded=1;whiteSpace=wrap;html=1;" parent="1" vertex="1">
          <mxGeometry x="21" y="380" width="50" height="33" as="geometry" />
        </mxCell>
        <mxCell id="qYHbjZ-DGWUZZU7vlHsY-38" style="edgeStyle=orthogonalEdgeStyle;rounded=0;orthogonalLoop=1;jettySize=auto;html=1;entryX=0;entryY=0.5;entryDx=0;entryDy=0;" parent="1" source="qYHbjZ-DGWUZZU7vlHsY-17" target="qYHbjZ-DGWUZZU7vlHsY-37" edge="1">
          <mxGeometry relative="1" as="geometry" />
        </mxCell>
        <mxCell id="qYHbjZ-DGWUZZU7vlHsY-17" value="&lt;font style=&quot;font-size: 14px;&quot; face=&quot;宋体&quot;&gt;教师网络&lt;/font&gt;" style="rounded=1;whiteSpace=wrap;html=1;fillColor=#f8cecc;strokeColor=#b85450;" parent="1" vertex="1">
          <mxGeometry x="122" y="321" width="93" height="50" as="geometry" />
        </mxCell>
        <mxCell id="qYHbjZ-DGWUZZU7vlHsY-42" style="edgeStyle=orthogonalEdgeStyle;rounded=0;orthogonalLoop=1;jettySize=auto;html=1;entryX=0;entryY=0.5;entryDx=0;entryDy=0;" parent="1" source="qYHbjZ-DGWUZZU7vlHsY-19" target="qYHbjZ-DGWUZZU7vlHsY-41" edge="1">
          <mxGeometry relative="1" as="geometry" />
        </mxCell>
        <mxCell id="qYHbjZ-DGWUZZU7vlHsY-19" value="&lt;font style=&quot;font-size: 14px;&quot; face=&quot;宋体&quot;&gt;学生网络&lt;/font&gt;" style="rounded=1;whiteSpace=wrap;html=1;fillColor=#eeeeee;strokeColor=#36393d;" parent="1" vertex="1">
          <mxGeometry x="122" y="419" width="93" height="50" as="geometry" />
        </mxCell>
        <mxCell id="qYHbjZ-DGWUZZU7vlHsY-24" value="&lt;font style=&quot;font-size: 14px;&quot; face=&quot;宋体&quot;&gt;蒸馏损失&lt;/font&gt;" style="rounded=1;whiteSpace=wrap;html=1;fillColor=#fff2cc;strokeColor=#d6b656;" parent="1" vertex="1">
          <mxGeometry x="483" y="380.5" width="58" height="32" as="geometry" />
        </mxCell>
        <mxCell id="qYHbjZ-DGWUZZU7vlHsY-27" value="&lt;font style=&quot;font-size: 18px;&quot; face=&quot;宋体&quot;&gt;`t_1`&lt;/font&gt;" style="rounded=1;whiteSpace=wrap;html=1;fillColor=#f8cecc;strokeColor=#b85450;" parent="1" vertex="1">
          <mxGeometry x="276" y="321" width="33" height="50" as="geometry" />
        </mxCell>
        <mxCell id="qYHbjZ-DGWUZZU7vlHsY-28" value="&lt;font style=&quot;font-size: 18px;&quot; face=&quot;宋体&quot;&gt;`t_2`&lt;/font&gt;" style="rounded=1;whiteSpace=wrap;html=1;fillColor=#f8cecc;strokeColor=#b85450;" parent="1" vertex="1">
          <mxGeometry x="322" y="321" width="33" height="50" as="geometry" />
        </mxCell>
        <mxCell id="qYHbjZ-DGWUZZU7vlHsY-30" value="&lt;font style=&quot;font-size: 18px;&quot; face=&quot;宋体&quot;&gt;`t_n`&lt;/font&gt;" style="rounded=1;whiteSpace=wrap;html=1;fillColor=#f8cecc;strokeColor=#b85450;" parent="1" vertex="1">
          <mxGeometry x="401" y="321" width="33" height="50" as="geometry" />
        </mxCell>
        <mxCell id="qYHbjZ-DGWUZZU7vlHsY-32" value="" style="endArrow=none;dashed=1;html=1;rounded=0;dashPattern=1 1;strokeWidth=4;" parent="1" edge="1">
          <mxGeometry width="50" height="50" relative="1" as="geometry">
            <mxPoint x="370" y="346.06" as="sourcePoint" />
            <mxPoint x="390" y="345.8" as="targetPoint" />
          </mxGeometry>
        </mxCell>
        <mxCell id="qYHbjZ-DGWUZZU7vlHsY-33" value="&lt;font style=&quot;font-size: 18px;&quot; face=&quot;宋体&quot;&gt;`s_1`&lt;/font&gt;" style="rounded=1;whiteSpace=wrap;html=1;fillColor=#eeeeee;strokeColor=#36393d;" parent="1" vertex="1">
          <mxGeometry x="276" y="419" width="33" height="50" as="geometry" />
        </mxCell>
        <mxCell id="qYHbjZ-DGWUZZU7vlHsY-34" value="&lt;font style=&quot;font-size: 18px;&quot; face=&quot;宋体&quot;&gt;`s_2`&lt;/font&gt;" style="rounded=1;whiteSpace=wrap;html=1;fillColor=#eeeeee;strokeColor=#36393d;" parent="1" vertex="1">
          <mxGeometry x="322" y="419" width="33" height="50" as="geometry" />
        </mxCell>
        <mxCell id="qYHbjZ-DGWUZZU7vlHsY-35" value="&lt;font style=&quot;font-size: 18px;&quot; face=&quot;宋体&quot;&gt;`s_n`&lt;/font&gt;" style="rounded=1;whiteSpace=wrap;html=1;fillColor=#eeeeee;strokeColor=#36393d;" parent="1" vertex="1">
          <mxGeometry x="401" y="419" width="33" height="50" as="geometry" />
        </mxCell>
        <mxCell id="qYHbjZ-DGWUZZU7vlHsY-36" value="" style="endArrow=none;dashed=1;html=1;rounded=0;dashPattern=1 1;strokeWidth=4;" parent="1" edge="1">
          <mxGeometry width="50" height="50" relative="1" as="geometry">
            <mxPoint x="370" y="444.06" as="sourcePoint" />
            <mxPoint x="390" y="443.8" as="targetPoint" />
          </mxGeometry>
        </mxCell>
      </root>
    </mxGraphModel>
  </diagram>
</mxfile>
